<?xml version="1.0" encoding="UTF-8"?>
<svg width="180px" height="36px" viewBox="0 0 180 36" version="1.1" xmlns="http://www.w3.org/2000/svg" xmlns:xlink="http://www.w3.org/1999/xlink">
    <title>47BC84E1-622D-4E2C-9062-2BA099BBD0E1@1x</title>
    <g id="Page-1" stroke="none" stroke-width="1" fill="none" fill-rule="evenodd">
        <g id="D.01.00-Registration" transform="translate(-53.000000, -42.000000)">
            <g id="Group" transform="translate(53.000000, 42.000000)">
                <path d="M30.6234565,9 C34.1580305,9 36.0242117,10.6154301 36.0330303,14.5576253 L36.0330303,14.5576253 L36.0330303,21.1464305 L28.7366986,21.1464305 L28.7366986,25.7257568 C28.7366986,27.1663383 29.2590949,28.1761953 30.6919055,28.1761953 C32.1230364,28.1761953 32.6567709,27.174441 32.6567709,25.7278891 L32.6567709,25.7278891 L32.6525716,23.698793 L36.0330303,23.698793 L36.0330303,25.4110294 C36.0242117,29.3540775 33.8544191,30.8918919 30.6213568,30.8918919 C27.3878746,30.8918919 25.2336195,29.0239976 25.2231212,25.4110294 L25.2231212,25.4110294 L25.2231212,14.5832129 C25.2231212,10.6120184 26.9461053,9 30.6234565,9 Z M18.7027768,9 C21.6726895,9 23.562973,10.2864039 23.5741631,12.814015 L23.5741631,12.814015 L23.5741631,16.0336492 L20.2449266,16.0336492 L20.2440516,13.8816429 C20.2295623,12.4761788 20.0235466,11.6525419 18.7786202,11.6525419 C17.4814075,11.6525419 17.3558306,12.5569048 17.3558306,14.0432834 C17.3558306,15.7876249 17.5754865,16.1078402 20.1798587,18.4674555 C23.2252004,21.2261673 23.7739255,22.0631613 23.7818,25.1847269 L23.7818,25.1847269 L23.7818,25.5561083 C23.7818,30.0246245 21.5819261,30.8918919 18.7342746,30.8918919 C15.8886954,30.8918919 13.6925515,30.0322995 13.6925515,26.5606717 L13.6925515,26.5606717 L13.6925515,23.7384285 L17.1871515,23.7384285 L17.1877189,26.5596475 C17.1971263,27.2369407 17.3391665,28.2402027 18.7384191,28.2402027 C20.1980943,28.2402027 20.2830555,27.155479 20.2847133,25.7249568 L20.284907,25.4996435 C20.2772104,23.3860904 19.9738934,23.102873 17.7988723,21.2163605 L17.7988723,21.2163605 L16.9243934,20.4450297 C13.8711773,17.7494229 13.8653751,15.7360323 13.8595728,14.4654046 L13.859,14.486 L13.8590364,14.6202109 C13.8589782,14.6152591 13.8589222,14.608255 13.8588714,14.5990735 L13.858864,14.2824115 C13.8590129,14.2142467 13.8592413,14.1348709 13.8595728,14.0432834 C13.8757362,10.0007259 15.7813542,9 18.7027768,9 Z M60.5354909,26.7567568 L60.5354909,30.6486486 L56.6919676,30.6486486 L56.6919676,26.7567568 L60.5354909,26.7567568 Z M48.7470651,9.24324324 L51.0478437,26.7895955 L53.3461004,9.24324324 L56.9321878,9.24324324 L53.5781117,30.6486486 L48.4797477,30.6486486 L45.1613979,9.24324324 L48.7470651,9.24324324 Z M12.2512303,9.24324324 L12.2512303,30.6486486 L8.88814747,30.6486486 L8.88814747,9.24324324 L12.2512303,9.24324324 Z M7.9268469,0 L7.9268469,2.89237978 L7.29803856,2.89237978 C6.67174881,2.89237978 6.20874775,3.04719993 5.906097,3.37592765 C5.60470556,3.7055037 5.47583763,4.18820324 5.47583763,4.8189363 L5.47583763,4.8189363 L5.47583763,9.14117562 L7.92726666,9.14117562 L7.92726666,11.9673857 L5.47583763,11.9673857 L5.47583763,30.4054054 L1.98590938,30.4054054 L1.98590938,11.9673857 L0,11.9673857 L0,9.14117562 L1.98590938,9.14117562 L1.98590938,4.26285625 C1.98590938,2.75410205 2.19831059,1.69538671 2.90813362,1.01375387 C3.61921595,0.331272709 5.11274069,0 6.66419304,0 L6.66419304,0 L7.9268469,0 Z M44.2005171,8.75675676 L44.2005171,12.5438293 C43.2530581,12.5570648 42.5072839,12.7022288 41.901812,13.1287548 C41.2620997,13.5774824 40.8942234,14.3361777 40.8963112,15.4889507 L40.8963112,15.4889507 L40.8963112,30.4054054 L37.4743515,30.4054054 L37.4743515,9.00182774 L40.6461887,9.00182774 L40.6461887,11.2057588 L40.6812643,11.1271995 C41.6028342,9.16108119 42.3853544,8.79475557 44.2005171,8.75675676 L44.2005171,8.75675676 Z M30.6818271,11.3932929 C29.0457691,11.3932929 28.7366986,12.641541 28.7366986,13.8475695 L28.7366986,13.8475695 L28.7366986,18.2652675 L32.650052,18.2652675 L32.650052,13.8467166 C32.650052,12.6236297 32.3174652,11.3932929 30.6818271,11.3932929 Z" id="Combined-Shape" fill="#FF6600"></path>
                <path d="M148.936525,15.8108108 C153.049294,15.8108108 156.383351,19.1868258 156.383351,23.3513514 C156.383351,27.5158769 153.049294,30.8918919 148.936525,30.8918919 C147.428638,30.8918919 146.025426,30.4380825 144.852828,29.6579856 L144.852782,36 L141.489699,36 L141.489699,16.2972973 L144.852782,16.2972973 L144.852828,17.0447171 C146.025426,16.2646202 147.428638,15.8108108 148.936525,15.8108108 Z M76.9905747,9.60798934 L76.9905747,30.4662162 L73.6273746,30.4662162 L73.6273746,29.3108108 C72.0303247,30.3648649 70.3584405,30.8918919 68.6117222,30.8918919 C65.9916447,30.8918919 62.2754452,28.7027027 62.2754452,23.2367372 C62.2754452,17.7707717 66.4617045,16.1603542 68.8484822,15.9994193 C70.4396674,15.8921294 72.0326315,16.3632153 73.6273746,17.4126768 L73.6273746,9.60798934 L76.9905747,9.60798934 Z M132.841772,15.8108108 C136.95454,15.8108108 140.288598,19.1868258 140.288598,23.3513514 C140.288598,27.5158769 136.95454,30.8918919 132.841772,30.8918919 C128.729003,30.8918919 125.394945,27.5158769 125.394945,23.3513514 C125.394945,19.1868258 128.729003,15.8108108 132.841772,15.8108108 Z M85.4032847,15.917947 L85.7255349,15.9215055 C90.1449631,16.0349639 92.3566104,18.897127 92.3604768,24.5079948 L92.3581577,24.8412162 L81.9841756,24.8412162 C82.4892089,26.6188635 83.6050364,27.5758024 85.3316582,27.7120328 C86.956714,27.8402497 88.3575851,27.4579925 89.5342714,26.5652611 L89.7522729,26.3918919 L91.5237796,28.9458272 C89.7946946,30.5531171 87.3264946,31.1285829 84.1191796,30.6722247 C79.308207,29.9876874 78.3933058,25.7194098 78.3933058,23.7742953 C78.3933058,21.8919264 78.9300313,16.1360124 85.0905487,15.9238897 L85.4032847,15.917947 Z M112.548167,15.917947 L112.870418,15.9215055 C117.289846,16.0349639 119.501493,18.897127 119.50536,24.5079948 L119.503041,24.8412162 L109.129058,24.8412162 C109.634092,26.6188635 110.749919,27.5758024 112.476541,27.7120328 C114.101597,27.8402497 115.502468,27.4579925 116.679154,26.5652611 L116.897156,26.3918919 L118.668662,28.9458272 C116.939577,30.5531171 114.471377,31.1285829 111.264062,30.6722247 C106.45309,29.9876874 105.538189,25.7194098 105.538189,23.7742953 C105.538189,21.8919264 106.074914,16.1360124 112.235432,15.9238897 L112.548167,15.917947 Z M163.955291,15.917947 L164.277541,15.9215055 C168.696969,16.0349639 170.908616,18.897127 170.912483,24.5079948 L170.910164,24.8412162 L160.536182,24.8412162 C161.041215,26.6188635 162.157042,27.5758024 163.883664,27.7120328 C165.50872,27.8402497 166.909591,27.4579925 168.086277,26.5652611 L168.304279,26.3918919 L170.075786,28.9458272 C168.346701,30.5531171 165.878501,31.1285829 162.671186,30.6722247 C157.860213,29.9876874 156.945312,25.7194098 156.945312,23.7742953 C156.945312,21.8919264 157.482037,16.1360124 163.642555,15.9238897 L163.955291,15.917947 Z M124.434065,9.72972973 L124.434065,30.4054054 L121.070982,30.4054054 L121.070982,9.72972973 L124.434065,9.72972973 Z M180,15.9178667 L180,19.3732316 C178.913496,19.2258367 177.967453,19.375132 177.161871,19.8211175 C176.174291,20.3678607 175.621596,21.624382 175.600302,22.0378469 L175.600968,30.4054054 L172.237885,30.4054054 L172.237885,16.2972973 L175.600968,16.2972973 L175.601256,18.3675796 C176.367447,17.3095193 177.099604,16.6194252 177.797727,16.2972973 C178.627081,15.9146168 179.361172,15.7881399 180,15.9178667 Z M95.3074824,16.2668919 L99.0007507,26.3966606 L102.634081,16.2668919 L106.417432,16.2668919 L100.952423,30.375 L97.0488443,30.375 L91.5240142,16.2668919 L95.3074824,16.2668919 Z M69.5437484,19.2162162 C67.3546942,19.2162162 65.5801151,21.0675793 65.5801151,23.3513514 C65.5801151,25.6351234 67.3546942,27.4864865 69.5437484,27.4864865 C71.7328027,27.4864865 73.5073818,25.6351234 73.5073818,23.3513514 C73.5073818,21.0675793 71.7328027,19.2162162 69.5437484,19.2162162 Z M148.936525,19.2162162 C146.681136,19.2162162 144.852782,21.0675793 144.852782,23.3513514 C144.852782,25.6351234 146.681136,27.4864865 148.936525,27.4864865 C151.191914,27.4864865 153.020269,25.6351234 153.020269,23.3513514 C153.020269,21.0675793 151.191914,19.2162162 148.936525,19.2162162 Z M132.841772,19.2162162 C130.586382,19.2162162 128.758028,21.0675793 128.758028,23.3513514 C128.758028,25.6351234 130.586382,27.4864865 132.841772,27.4864865 C135.097161,27.4864865 136.925515,25.6351234 136.925515,23.3513514 C136.925515,21.0675793 135.097161,19.2162162 132.841772,19.2162162 Z M85.4883643,19.0032596 C83.5791142,19.0032596 82.4289192,19.9965424 82.0377794,21.9831081 L88.9185692,21.9831081 C88.5410161,19.9965424 87.3976145,19.0032596 85.4883643,19.0032596 Z M112.633247,19.0032596 C110.723997,19.0032596 109.573802,19.9965424 109.182662,21.9831081 L116.063452,21.9831081 C115.685899,19.9965424 114.542497,19.0032596 112.633247,19.0032596 Z M164.04037,19.0032596 C162.13112,19.0032596 160.980925,19.9965424 160.589785,21.9831081 L167.470575,21.9831081 C167.093022,19.9965424 165.94962,19.0032596 164.04037,19.0032596 Z" id="Combined-Shape" fill="#333333"></path>
            </g>
        </g>
    </g>
</svg>